<mxfile host="app.diagrams.net" modified="2023-09-12T15:05:02.494Z" agent="Mozilla/5.0 (Windows NT 10.0; Win64; x64) AppleWebKit/537.36 (KHTML, like Gecko) Chrome/116.0.0.0 Safari/537.36" version="21.7.4" etag="sdAvJcvc9BdYmwizPhtx" type="github">
  <diagram name="Page-1" id="v36UTg8g59wzkbBdT9HL">
    <mxGraphModel>
      <root>
        <mxCell id="0" />
        <mxCell id="1" parent="0" />
      </root>
    </mxGraphModel>
  </diagram>
</mxfile>
